# xmcd
#
# Track frame offsets: 
#        150
#        14977
#        27572
#        31415
#        43517
#        63232
#        82452
#        97605
#        107220
#        128747
#        147807
#        173165
#        184662
#        199292
#        214907
#
# Disc length: 3101 seconds
#
# Revision: 2
# Processed by: cddbd v1.4PL0 Copyright (c) Steve Scherf et al.
# Submitted via: ExactAudioCopy v0.90b4
#
DISCID=da0c1b0f
DTITLE=Blues Brothers and Friends - Live from Chicago's House of Blues
DYEAR=1997
DGENRE=Blues
TTITLE0=Intro
TTITLE1=Green Onions
TTITLE2=Chicken Shack
TTITLE3=Sweet Home Chicago
TTITLE4=I Wish You Would
TTITLE5=Messin' With the Kid
TTITLE6=All My Money Back
TTITLE7=Born in Chicago
TTITLE8=Blues, Why You Worry Me?
TTITLE9=Groove With Me Tonight
TTITLE10=634-5789
TTITLE11=All She Wants To Do Is Rock
TTITLE12=Flip, Flop and Fly
TTITLE13=Money (That's What I Want)
TTITLE14=Viva Las Vegas
EXTD=
EXTT0=
EXTT1=
EXTT2=
EXTT3=
EXTT4=
EXTT5=
EXTT6=
EXTT7=
EXTT8=
EXTT9=
EXTT10=
EXTT11=
EXTT12=
EXTT13=
EXTT14=
PLAYORDER=
